<svg xmlns="http://www.w3.org/2000/svg" xmlns:xlink="http://www.w3.org/1999/xlink" id="Capa_1" x="0px" y="0px" viewBox="0 0 115.5 39.3" style="enable-background:new 0 0 115.5 39.3;" xml:space="preserve"><style type="text/css">	.st0{fill:#DB1808;}	.st1{fill:#000200;}	.st2{fill:#53524E;}	.st3{display:none;}	.st4{font-family:'Poppins-Medium';}	.st5{font-size:17.6751px;}	.st6{display:none;fill:#53524E;}	.st7{font-size:9.6555px;}</style><path class="st0" d="M20.2,18.8c0-2,0.5-3.9,1.4-5.6c0.1-0.5,0.2-1,0.3-1.5c0-0.1,0-0.3,0.1-0.4l-0.2,0.1l-1,0.5 c-0.1,0-0.1,0.1-0.2,0.1c-0.1,0-0.2,0-0.2,0c-0.1,0-0.1-0.1-0.2-0.1c0-0.1-0.1-0.1-0.1-0.2l-0.5-0.9l-1-1.9l0-0.1 c0,0.1-0.1,0.1-0.1,0.1l-0.4,0.8c-0.3,0.7-0.7,1.3-1,2c0,0.1-0.1,0.2-0.2,0.2c0,0.1-0.1,0.1-0.2,0.1c-0.1,0-0.1,0-0.2,0 c-0.1,0-0.2-0.1-0.3-0.1l-1.1-0.6l-0.1-0.1c0,0,0,0,0,0c0.1,0.4,0.1,0.7,0.2,1.1l0.6,3.3c0,0.2,0,0.4,0,0.6c0,0,0,0.1,0,0.1 c0,0,0,0.1-0.1,0.1c0,0-0.1,0-0.1,0.1c0,0-0.1,0-0.1,0c-0.1,0-0.1,0-0.2-0.1c-0.1-0.1-0.2-0.1-0.2-0.2c-0.1-0.1-0.2-0.2-0.3-0.4 l-1.6-1.8c0,0,0,0-0.1-0.1c0,0,0,0.1,0,0.1c-0.1,0.3-0.2,0.6-0.3,0.9c0,0.1-0.1,0.2-0.1,0.2c0,0-0.1,0.1-0.1,0.1c0,0-0.1,0-0.1,0 c-0.1,0-0.2,0-0.3,0l-1.2-0.3L9.6,15c0,0-0.1,0-0.1,0c0,0,0,0.1,0,0.1l0.1,0.5c0.2,0.8,0.4,1.5,0.6,2.3c0,0.1,0,0.1,0,0.2 c0,0.1,0,0.1,0,0.1c0,0-0.1,0.1-0.1,0.1c-0.1,0-0.1,0.1-0.2,0.1l-0.8,0.4l-0.1,0L9.2,19l1.6,1.3c0.9,0.7,1.7,1.4,2.6,2.1 c0.1,0.1,0.1,0.1,0.2,0.2c0,0.1,0.1,0.1,0.1,0.2c0,0.1,0,0.1,0,0.2c0,0.1,0,0.2-0.1,0.2c-0.1,0.3-0.2,0.7-0.3,1c0,0,0,0.1,0,0.1h0.1 l0.2,0l1.2-0.2L16,24l1.3-0.2c0.2,0,0.3,0,0.5,0c0,0,0.1,0,0.1,0c0,0,0.1,0,0.1,0.1c0,0,0.1,0.1,0.1,0.1c0,0,0,0.1,0,0.1 c0,0.1,0,0.1,0,0.2c0,0.5,0,0.9-0.1,1.4l-0.1,1.7c0,0.4,0,0.7-0.1,1.1c0,0.1,0,0.2,0,0.3c0.2,0,0.5,0,0.7,0c0,0,0-0.1,0-0.1 c0-0.3,0-0.5,0-0.8l0-1.5c0-0.7,0-1.4-0.1-2.1c0-0.1,0-0.1,0-0.2c0-0.1,0-0.1,0-0.2c0,0,0.1-0.1,0.1-0.1c0,0,0.1-0.1,0.1-0.1 c0,0,0.1,0,0.2,0h0.2l0.8,0.1l1.6,0.2C20.6,22.5,20.1,20.6,20.2,18.8"></path><path class="st1" d="M30.1,28l3.2,1.1c-0.6,0.8-1.3,1.6-2,2.3c-1.7,1.7-3.7,3.1-5.9,4c-2.2,0.9-4.6,1.4-7,1.4s-4.8-0.5-7-1.4 c-2.2-0.9-4.2-2.3-5.9-4c-2.6-2.6-4.3-5.9-5-9.4c-0.7-3.6-0.3-7.3,1-10.6C2.8,8,5.1,5.1,8.1,3.1c3-2,6.5-3.1,10.2-3.1 c2.4,0,4.8,0.4,7,1.3c2.2,0.9,4.2,2.3,5.9,4c0.7,0.7,1.4,1.5,2,2.3l-3.2,1.2C29.7,8.4,29.4,8,29,7.6c-2.8-2.8-6.7-4.4-10.7-4.4 S10.5,4.8,7.6,7.6c-2.1,2.1-3.5,4.8-4.1,7.8c-0.6,2.9-0.3,6,0.9,8.8s3.1,5.1,5.6,6.8c2.5,1.7,5.4,2.6,8.4,2.6c2,0,4-0.3,5.8-1.1 c1.8-0.8,3.5-1.9,4.9-3.3C29.4,28.8,29.7,28.4,30.1,28"></path><g>	<path d="M36.6,12c2.6,0,4.8,1.3,5.7,3.7h-2.4c-0.7-1.3-1.8-1.9-3.3-1.9c-2.4,0-4.2,1.7-4.2,4.5c0,2.8,1.8,4.5,4.2,4.5  c1.5,0,2.6-0.6,3.3-1.9h2.4c-0.9,2.4-3.1,3.7-5.7,3.7c-3.5,0-6.3-2.6-6.3-6.3C30.4,14.6,33.2,12,36.6,12z"></path>	<path d="M48.6,14.5c1.6,0,2.8,0.8,3.4,1.6v-1.4h2v9.7h-2V23c-0.6,0.8-1.8,1.6-3.4,1.6c-2.5,0-4.6-2.1-4.6-5.1S46.1,14.5,48.6,14.5z   M49,16.3c-1.5,0-3,1.1-3,3.2s1.4,3.3,3,3.3c1.5,0,3-1.2,3-3.3C52,17.5,50.6,16.3,49,16.3z"></path>	<path d="M63.6,19c0-1.8-1-2.7-2.4-2.7c-1.5,0-2.5,0.9-2.5,2.7v5.4h-2v-9.7h2v1.1c0.7-0.8,1.7-1.3,2.9-1.3c2.3,0,4,1.4,4,4.2v5.7h-2  V19z"></path>	<path d="M72.1,14.5c1.6,0,2.8,0.8,3.4,1.6v-1.4h2v9.7h-2V23c-0.6,0.8-1.8,1.6-3.4,1.6c-2.5,0-4.6-2.1-4.6-5.1S69.5,14.5,72.1,14.5z   M72.5,16.3c-1.5,0-3,1.1-3,3.2s1.4,3.3,3,3.3c1.5,0,3-1.2,3-3.3C75.5,17.5,74,16.3,72.5,16.3z"></path>	<path d="M79,14.7h2l2,7.8l2.1-7.8h2.1l2,7.8l2-7.8h2l-3,9.7h-2.1l-2-7.2l-2,7.2H82L79,14.7z"></path>	<path d="M98.6,14.5c1.6,0,2.8,0.8,3.4,1.6v-1.4h2v9.7h-2V23c-0.6,0.8-1.8,1.6-3.4,1.6c-2.5,0-4.6-2.1-4.6-5.1S96.1,14.5,98.6,14.5z   M99.1,16.3c-1.5,0-3,1.1-3,3.2s1.4,3.3,3,3.3c1.5,0,3-1.2,3-3.3C102,17.5,100.6,16.3,99.1,16.3z"></path>	<path d="M113.4,14.7h2.1l-6,14.3h-2.1l2-4.7l-3.8-9.6h2.2l2.7,7.4L113.4,14.7z"></path></g><g>	<path class="st2" d="M71.3,35.5h-2.8L68,36.8h-1.1l2.4-6.7h1.3l2.4,6.7h-1.2L71.3,35.5z M69.9,31.4l-1.1,3.1h2.2L69.9,31.4z"></path>	<path class="st2" d="M76.2,31.4c1.3,0,2.2,0.6,2.5,1.8h-1.2c-0.2-0.5-0.6-0.8-1.3-0.8c-0.9,0-1.5,0.7-1.5,1.8  c0,1.2,0.6,1.8,1.5,1.8c0.7,0,1.1-0.3,1.3-0.8h1.2c-0.3,1-1.1,1.8-2.5,1.8c-1.5,0-2.6-1.1-2.6-2.8C73.6,32.5,74.6,31.4,76.2,31.4z"></path>	<path class="st2" d="M81.9,31.4c0.9,0,1.5,0.4,1.8,0.9v-0.8h1.1v5.3h-1.1V36c-0.3,0.5-1,0.9-1.9,0.9c-1.4,0-2.5-1.1-2.5-2.8  C79.4,32.5,80.5,31.4,81.9,31.4z M82.1,32.4c-0.8,0-1.6,0.6-1.6,1.8s0.8,1.8,1.6,1.8c0.8,0,1.6-0.6,1.6-1.8  C83.7,33,82.9,32.4,82.1,32.4z"></path>	<path class="st2" d="M88.4,31.4c0.7,0,1.4,0.3,1.8,0.8v-2.6h1.1v7.1h-1.1V36c-0.3,0.5-1,0.9-1.8,0.9c-1.4,0-2.5-1.1-2.5-2.8  C85.9,32.5,87,31.4,88.4,31.4z M88.7,32.4c-0.8,0-1.6,0.6-1.6,1.8s0.8,1.8,1.6,1.8c0.8,0,1.6-0.6,1.6-1.8  C90.3,33,89.5,32.4,88.7,32.4z"></path>	<path class="st2" d="M95.1,36.9c-1.5,0-2.7-1.1-2.7-2.8s1.1-2.7,2.7-2.7c1.5,0,2.6,1.1,2.6,2.6c0,0.2,0,0.4,0,0.5h-4.1  c0.1,0.9,0.7,1.4,1.5,1.4c0.7,0,1.1-0.3,1.3-0.7h1.2C97.3,36.2,96.4,36.9,95.1,36.9z M93.6,33.7h2.9c0-0.8-0.7-1.3-1.5-1.3  C94.3,32.3,93.7,32.8,93.6,33.7z"></path>	<path class="st2" d="M106.3,33.9c0-1-0.5-1.5-1.3-1.5c-0.8,0-1.3,0.5-1.3,1.5v3h-1.1v-3c0-1-0.5-1.5-1.3-1.5  c-0.8,0-1.3,0.5-1.3,1.5v3h-1.1v-5.3h1.1v0.6c0.4-0.4,0.9-0.7,1.6-0.7c0.8,0,1.5,0.4,1.9,1.1c0.3-0.6,1.1-1.1,1.9-1.1  c1.2,0,2.2,0.8,2.2,2.3v3.1h-1.1V33.9z"></path>	<path class="st2" d="M112.5,31.5h1.1l-3.3,7.8h-1.1l1.1-2.6l-2.1-5.2h1.2l1.5,4.1L112.5,31.5z"></path></g><text transform="matrix(1 0 0 1 -0.8508 25.356)" class="st3 st4 st5">Canaway</text><text transform="matrix(1 0 0 1 20.363 24.2881)" class="st6 st4 st7">Academy</text></svg>